<?xml version="1.0" encoding="UTF-8" standalone="no"?>
<!-- Created with Inkscape (http://www.inkscape.org/) -->

<svg
   width="150mm"
   height="150mm"
   viewBox="0 0 150 150"
   version="1.1"
   id="svg1"
   xml:space="preserve"
   inkscape:version="1.3 (0e150ed, 2023-07-21)"
   sodipodi:docname="logo_final.svg"
   xmlns:inkscape="http://www.inkscape.org/namespaces/inkscape"
   xmlns:sodipodi="http://sodipodi.sourceforge.net/DTD/sodipodi-0.dtd"
   xmlns:xlink="http://www.w3.org/1999/xlink"
   xmlns="http://www.w3.org/2000/svg"
   xmlns:svg="http://www.w3.org/2000/svg"><sodipodi:namedview
     id="namedview1"
     pagecolor="#ffffff"
     bordercolor="#000000"
     borderopacity="0.25"
     inkscape:showpageshadow="2"
     inkscape:pageopacity="0.0"
     inkscape:pagecheckerboard="0"
     inkscape:deskcolor="#d1d1d1"
     inkscape:document-units="mm"
     inkscape:zoom="0.87481762"
     inkscape:cx="319.49516"
     inkscape:cy="218.90277"
     inkscape:window-width="2240"
     inkscape:window-height="1124"
     inkscape:window-x="0"
     inkscape:window-y="25"
     inkscape:window-maximized="0"
     inkscape:current-layer="layer1" /><defs
     id="defs1"><linearGradient
       id="linearGradient6"
       inkscape:collect="always"><stop
         style="stop-color:#e71919;stop-opacity:1;"
         offset="0"
         id="stop7" /><stop
         style="stop-color:#262626;stop-opacity:0.81052631;"
         offset="1"
         id="stop8" /></linearGradient><linearGradient
       inkscape:collect="always"
       xlink:href="#linearGradient6"
       id="linearGradient8"
       x1="28.847717"
       y1="149.10489"
       x2="176.86131"
       y2="149.10489"
       gradientUnits="userSpaceOnUse"
       gradientTransform="matrix(0.96105585,0,0,1.0040766,1.9935628,-4.8461815e-4)" /></defs><g
     inkscape:label="Capa 1"
     inkscape:groupmode="layer"
     id="layer1"
     transform="translate(-27.942346,-74.30944)"><path
       style="fill:url(#linearGradient8);fill-opacity:1;stroke-width:0.42263"
       d="m 32.233285,220.28458 c -1.608222,-6.20628 -2.700635,-12.56535 -3.122018,-18.983 -0.347267,-5.25007 -0.338425,-10.52392 -0.04938,-15.77672 0.346116,-6.15843 1.297479,-12.28232 2.902265,-18.22097 1.559894,-5.7933 3.605442,-11.43515 5.906562,-16.94834 7.009738,-16.62847 17.073832,-31.74677 28.954241,-44.97349 7.125868,-7.928689 14.899471,-15.217562 23.162129,-21.830898 3.272529,-2.55769 6.62351,-5.006998 10.048436,-7.336811 0.83928,-0.548258 1.66106,-1.138224 2.55962,-1.577125 0.34617,-0.114404 0.66688,0.188161 0.97419,0.317836 1.83234,1.061902 3.5593,2.308116 5.29057,3.537705 7.71512,5.571505 15.07237,11.696301 21.88495,18.43493 7.02765,6.924043 13.60014,14.365383 19.46172,22.392523 8.94215,12.22816 16.37426,25.75598 21.25002,40.30641 1.88966,5.6759 3.40436,11.49801 4.37419,17.42418 0.56647,3.94705 0.78572,7.93849 0.93353,11.92335 0.13518,4.44043 0.16704,8.89296 -0.15681,13.32569 -0.30293,3.57746 -0.89569,7.12038 -1.53341,10.64685 -0.5652,2.98601 -1.1508,5.97413 -1.97193,8.8968 -0.18534,0.57878 -0.32751,1.19103 -0.65338,1.70496 -0.31935,0.2415 -0.41707,-0.46903 -0.51919,-0.68498 -0.21613,-0.79842 -0.32376,-1.62449 -0.5469,-2.42181 -0.82001,-3.14107 -1.90584,-6.19983 -3.08211,-9.21228 -1.1428,-2.93476 -2.49249,-5.77861 -4.00666,-8.52322 -4.13402,-7.55995 -9.53759,-14.37253 -15.96562,-19.92196 -8.12177,-7.0085 -17.70515,-12.18495 -27.90818,-14.94337 -10.45848,-2.8429 -21.545843,-3.04812 -32.109665,-0.69198 -6.185589,1.38207 -12.21802,3.55976 -17.862394,6.54855 -12.19569,6.51697 -22.417797,16.89817 -29.224053,29.29772 -3.099021,5.64699 -5.465787,11.73586 -6.95684,18.05798 -0.231906,0.83733 -0.432218,1.69598 -0.804011,2.48032 -0.229545,0.24542 -0.324833,-0.39092 -0.42963,-0.56832 -0.315036,-0.87661 -0.565356,-1.77746 -0.80024,-2.68053 z"
       id="path5895"
       inkscape:export-filename="/Users/ksergi/Desktop/scale crown.png"
       inkscape:export-xdpi="96"
       inkscape:export-ydpi="96" /><text
       xml:space="preserve"
       style="font-style:normal;font-variant:normal;font-weight:normal;font-stretch:normal;font-size:23.9847px;font-family:Zapfino;-inkscape-font-specification:'Zapfino, Normal';font-variant-ligatures:normal;font-variant-caps:normal;font-variant-numeric:normal;font-variant-east-asian:normal;fill:#000000;fill-opacity:1;stroke-width:0.281071"
       x="34.388542"
       y="118.3753"
       id="text10"
       transform="scale(0.77865391,1.2842676)"><tspan
         sodipodi:role="line"
         id="tspan10"
         style="font-style:normal;font-variant:normal;font-weight:normal;font-stretch:normal;font-size:23.9847px;font-family:Zapfino;-inkscape-font-specification:'Zapfino, Normal';font-variant-ligatures:normal;font-variant-caps:normal;font-variant-numeric:normal;font-variant-east-asian:normal;fill:#000000;fill-opacity:1;stroke-width:0.281071"
         x="34.388542"
         y="118.3753">Wine Club</tspan></text></g></svg>
